<svg width="1514" height="397" viewBox="0 0 1514 397" fill="none" xmlns="http://www.w3.org/2000/svg">
<rect x="-40" y="63" width="112" height="110" rx="25" fill="white"/>
<rect x="183" y="61" width="74" height="72" rx="36" fill="white"/>
<rect x="72" y="-43" width="112" height="110" rx="25" fill="white"/>
<rect x="183" y="168" width="112" height="110" rx="25" fill="white" fill-opacity="0.7"/>
<rect x="406" y="166" width="74" height="72" rx="36" fill="white" fill-opacity="0.7"/>
<rect x="295" y="62" width="112" height="110" rx="25" fill="white"/>
<rect width="74" height="72" rx="36" transform="matrix(1 0 0 -1 75 258)" fill="white" fill-opacity="0.7"/>
<rect width="112" height="110" rx="25" transform="matrix(1 0 0 -1 -36 362)" fill="white" fill-opacity="0.5"/>
<rect width="112" height="110" rx="25" transform="matrix(1 0 0 -1 1179 256)" fill="white" fill-opacity="0.7"/>
<rect width="74" height="72" rx="36" transform="matrix(1 0 0 -1 1402 258)" fill="white" fill-opacity="0.7"/>
<rect width="112" height="110" rx="25" transform="matrix(1 0 0 -1 1291 362)" fill="white" fill-opacity="0.5"/>
<rect width="112" height="110" rx="25" transform="matrix(1 0 0 -1 1402 151)" fill="white"/>
<rect x="1041" y="63" width="112" height="110" rx="25" fill="white"/>
<rect x="1294" y="61" width="74" height="72" rx="36" fill="white"/>
<rect x="1183" y="-43" width="112" height="110" rx="25" fill="white"/>
<rect x="904" y="148" width="112" height="110" rx="25" fill="white" fill-opacity="0.7"/>
<rect x="1015" y="252" width="74" height="72" rx="36" fill="white" fill-opacity="0.5"/>
<rect x="481" y="287" width="112" height="110" rx="25" fill="white" fill-opacity="0.5"/>
<rect x="762" y="254" width="112" height="110" rx="25" fill="white" fill-opacity="0.5"/>
<rect x="767" y="9" width="112" height="110" rx="25" fill="white"/>
<rect x="960" y="7" width="74" height="72" rx="36" fill="white"/>
<rect x="681" y="198" width="74" height="72" rx="36" fill="white" fill-opacity="0.7"/>
<rect width="112" height="97" rx="25" transform="matrix(1 0 0 -1 436 97)" fill="white"/>
<rect width="74" height="72" rx="36" transform="matrix(1 0 0 -1 659 99)" fill="white"/>
<rect width="112" height="110" rx="25" transform="matrix(1 0 0 -1 548 203)" fill="white"/>
</svg>
